M48
; DRILL file KiCad 10.0.3 date 2026-06-14T20:30:44
; FORMAT={-:-/ absolute / metric / decimal}
; #@! TF.CreationDate,2026-06-14T20:30:44+03:00
; #@! TF.GenerationSoftware,Kicad,Pcbnew,10.0.3
; #@! TF.FileFunction,Plated,1,2,PTH
FMAT,2
METRIC
; #@! TA.AperFunction,Plated,PTH,ComponentDrill
T1C0.700
; #@! TA.AperFunction,Plated,PTH,ViaDrill
T2C0.800
; #@! TA.AperFunction,Plated,PTH,ComponentDrill
T3C0.800
; #@! TA.AperFunction,Plated,PTH,ComponentDrill
T4C1.000
; #@! TA.AperFunction,Plated,PTH,ComponentDrill
T5C1.100
; #@! TA.AperFunction,Plated,PTH,ComponentDrill
T6C1.200
; #@! TA.AperFunction,Plated,PTH,ComponentDrill
T7C1.300
%
G90
G05
T1
X112.8Y-53.26
X112.8Y-58.34
X113.26Y-61.7
X118.34Y-61.7
X126.15Y-60.76
X126.15Y-65.84
T2
X142.6Y-58.845
T3
X116.0Y-58.5
X116.19Y-52.235
X116.19Y-54.775
X116.2Y-65.02
X116.2Y-67.56
X116.2Y-70.1
X118.5Y-58.5
X123.81Y-52.235
X123.81Y-54.775
X123.82Y-65.02
X123.82Y-67.56
X123.82Y-70.1
T4
X112.72Y-75.8
X115.26Y-75.8
X117.8Y-75.8
X120.34Y-75.8
X129.65Y-63.8
X139.65Y-63.8
T5
X133.86Y-74.72
X136.4Y-74.72
X138.94Y-74.72
T6
X126.8Y-52.8
X126.8Y-57.3
X127.8Y-69.8
X139.5Y-52.8
X139.5Y-57.3
X140.5Y-69.8
T7
X148.15Y-53.765
X148.15Y-58.845
X148.15Y-68.81
X148.15Y-73.89
M30
