%TF.GenerationSoftware,KiCad,Pcbnew,10.0.3*%
%TF.CreationDate,2026-06-14T20:30:42+03:00*%
%TF.ProjectId,DIMMER,44494d4d-4552-42e6-9b69-6361645f7063,rev?*%
%TF.SameCoordinates,Original*%
%TF.FileFunction,Copper,L2,Bot*%
%TF.FilePolarity,Positive*%
%FSLAX46Y46*%
G04 Gerber Fmt 4.6, Leading zero omitted, Abs format (unit mm)*
G04 Created by KiCad (PCBNEW 10.0.3) date 2026-06-14 20:30:42*
%MOMM*%
%LPD*%
G01*
G04 APERTURE LIST*
G04 Aperture macros list*
%AMRoundRect*
0 Rectangle with rounded corners*
0 $1 Rounding radius*
0 $2 $3 $4 $5 $6 $7 $8 $9 X,Y pos of 4 corners*
0 Add a 4 corners polygon primitive as box body*
4,1,4,$2,$3,$4,$5,$6,$7,$8,$9,$2,$3,0*
0 Add four circle primitives for the rounded corners*
1,1,$1+$1,$2,$3*
1,1,$1+$1,$4,$5*
1,1,$1+$1,$6,$7*
1,1,$1+$1,$8,$9*
0 Add four rect primitives between the rounded corners*
20,1,$1+$1,$2,$3,$4,$5,0*
20,1,$1+$1,$4,$5,$6,$7,0*
20,1,$1+$1,$6,$7,$8,$9,0*
20,1,$1+$1,$8,$9,$2,$3,0*%
G04 Aperture macros list end*
%TA.AperFunction,ComponentPad*%
%ADD10RoundRect,0.250000X1.050000X-1.050000X1.050000X1.050000X-1.050000X1.050000X-1.050000X-1.050000X0*%
%TD*%
%TA.AperFunction,ComponentPad*%
%ADD11C,2.600000*%
%TD*%
%TA.AperFunction,ComponentPad*%
%ADD12R,1.905000X2.000000*%
%TD*%
%TA.AperFunction,ComponentPad*%
%ADD13O,1.905000X2.000000*%
%TD*%
%TA.AperFunction,ComponentPad*%
%ADD14C,1.600000*%
%TD*%
%TA.AperFunction,ComponentPad*%
%ADD15RoundRect,0.250000X-0.550000X-0.550000X0.550000X-0.550000X0.550000X0.550000X-0.550000X0.550000X0*%
%TD*%
%TA.AperFunction,ComponentPad*%
%ADD16C,1.400000*%
%TD*%
%TA.AperFunction,ComponentPad*%
%ADD17C,2.400000*%
%TD*%
%TA.AperFunction,ComponentPad*%
%ADD18C,2.000000*%
%TD*%
%TA.AperFunction,ComponentPad*%
%ADD19R,1.700000X1.700000*%
%TD*%
%TA.AperFunction,ComponentPad*%
%ADD20C,1.700000*%
%TD*%
%TA.AperFunction,ComponentPad*%
%ADD21RoundRect,0.250000X0.550000X0.550000X-0.550000X0.550000X-0.550000X-0.550000X0.550000X-0.550000X0*%
%TD*%
%TA.AperFunction,ViaPad*%
%ADD22C,1.000000*%
%TD*%
%TA.AperFunction,Conductor*%
%ADD23C,1.500000*%
%TD*%
%TA.AperFunction,Conductor*%
%ADD24C,0.500000*%
%TD*%
%TA.AperFunction,Conductor*%
%ADD25C,0.250000*%
%TD*%
G04 APERTURE END LIST*
D10*
%TO.P,J2,1,Pin_1_1*%
%TO.N,Net-(J2-Pin_1)*%
X148150000Y-73890000D03*
D11*
%TO.P,J2,2,Pin_2_2*%
%TO.N,AC 1*%
X148150000Y-68810000D03*
%TD*%
D12*
%TO.P,Q1,1,A1_1*%
%TO.N,AC 2*%
X138940000Y-74720000D03*
D13*
%TO.P,Q1,2,A2_2*%
%TO.N,Net-(J2-Pin_1)*%
X136400000Y-74720000D03*
%TO.P,Q1,3,G_3*%
%TO.N,Gate*%
X133860000Y-74720000D03*
%TD*%
D14*
%TO.P,C2,1*%
%TO.N,Net-(J1-Pin_3)*%
X118500000Y-58500000D03*
%TO.P,C2,2*%
%TO.N,VCC*%
X116000000Y-58500000D03*
%TD*%
D15*
%TO.P,U2,1*%
%TO.N,Net-(R4-Pad1)*%
X116200000Y-65020000D03*
D14*
%TO.P,U2,2*%
%TO.N,GND*%
X116200000Y-67560000D03*
%TO.P,U2,3,NC_3*%
%TO.N,unconnected-(U2-NC-Pad3)*%
X116200000Y-70100000D03*
%TO.P,U2,4*%
%TO.N,Gate*%
X123820000Y-70100000D03*
%TO.P,U2,5,NC_5*%
%TO.N,unconnected-(U2-NC-Pad5)*%
X123820000Y-67560000D03*
%TO.P,U2,6*%
%TO.N,Net-(10K2-Pad2)*%
X123820000Y-65020000D03*
%TD*%
D16*
%TO.P,10K2,1*%
%TO.N,AC 2*%
X126150000Y-60760000D03*
%TO.P,10K2,2*%
%TO.N,Net-(10K2-Pad2)*%
X126150000Y-65840000D03*
%TD*%
D17*
%TO.P,22K1,1*%
%TO.N,AC 2*%
X139500000Y-57300000D03*
%TO.P,22K1,2*%
%TO.N,Net-(22K1-Pad2)*%
X126800000Y-57300000D03*
%TD*%
D18*
%TO.P,C5,1*%
%TO.N,AC 2*%
X129650000Y-63800000D03*
%TO.P,C5,2*%
%TO.N,Net-(C5-Pad2)*%
X139650000Y-63800000D03*
%TD*%
D19*
%TO.P,J1,1,Pin_1_1*%
%TO.N,GND*%
X112720000Y-75800000D03*
D20*
%TO.P,J1,2,Pin_2_2*%
%TO.N,VCC*%
X115260000Y-75800000D03*
%TO.P,J1,3,Pin_3_3*%
%TO.N,Net-(J1-Pin_3)*%
X117800000Y-75800000D03*
%TO.P,J1,4,Pin_4_4*%
%TO.N,Net-(J1-Pin_4)*%
X120340000Y-75800000D03*
%TD*%
D16*
%TO.P,R4,1*%
%TO.N,Net-(R4-Pad1)*%
X113260000Y-61700000D03*
%TO.P,R4,2*%
%TO.N,Net-(J1-Pin_4)*%
X118340000Y-61700000D03*
%TD*%
D10*
%TO.P,J3,1,Pin_1_1*%
%TO.N,AC 2*%
X148150000Y-58845000D03*
D11*
%TO.P,J3,2,Pin_2_2*%
%TO.N,AC 1*%
X148150000Y-53765000D03*
%TD*%
D17*
%TO.P,22K2,1*%
%TO.N,AC 1*%
X139500000Y-52800000D03*
%TO.P,22K2,2*%
%TO.N,Net-(22K2-Pad2)*%
X126800000Y-52800000D03*
%TD*%
D16*
%TO.P,10K1,1*%
%TO.N,Net-(J1-Pin_3)*%
X112800000Y-58340000D03*
%TO.P,10K1,2*%
%TO.N,VCC*%
X112800000Y-53260000D03*
%TD*%
D21*
%TO.P,U3,1*%
%TO.N,Net-(22K1-Pad2)*%
X123810000Y-54775000D03*
D14*
%TO.P,U3,2*%
%TO.N,Net-(22K2-Pad2)*%
X123810000Y-52235000D03*
%TO.P,U3,3*%
%TO.N,GND*%
X116190000Y-52235000D03*
%TO.P,U3,4*%
%TO.N,Net-(J1-Pin_3)*%
X116190000Y-54775000D03*
%TD*%
D17*
%TO.P,R3,1*%
%TO.N,Net-(C5-Pad2)*%
X127800000Y-69800000D03*
%TO.P,R3,2*%
%TO.N,Net-(J2-Pin_1)*%
X140500000Y-69800000D03*
%TD*%
D22*
%TO.N,AC 2*%
X142600000Y-58845000D03*
%TD*%
%TO.N,AC 2*%
D23*
X142600000Y-58845000D02*
X142600000Y-64659440D01*
X142650000Y-64709440D02*
X142650000Y-71010000D01*
X142600000Y-64659440D02*
X142650000Y-64709440D01*
X142650000Y-71010000D02*
X138940000Y-74720000D01*
%TO.N,Gate*%
D24*
X123820000Y-70100000D02*
X128440000Y-74720000D01*
X128440000Y-74720000D02*
X133860000Y-74720000D01*
%TO.N,Net-(J1-Pin_3)*%
D25*
X119400000Y-59400000D02*
X119400000Y-74200000D01*
X119400000Y-74200000D02*
X117800000Y-75800000D01*
X118500000Y-58500000D02*
X119400000Y-59400000D01*
%TO.N,VCC*%
D24*
X112800000Y-55300000D02*
X116000000Y-58500000D01*
X112800000Y-53260000D02*
X112800000Y-55300000D01*
X116000000Y-58500000D02*
X114950000Y-59550000D01*
X114950000Y-59550000D02*
X114950000Y-75490000D01*
X114950000Y-75490000D02*
X115260000Y-75800000D01*
%TO.N,Net-(R4-Pad1)*%
D25*
X116190000Y-64920000D02*
X115920000Y-64920000D01*
%TO.N,GND*%
D24*
X112998653Y-51435001D02*
X111650000Y-52783654D01*
X111650000Y-74730000D02*
X112720000Y-75800000D01*
X115390001Y-51435001D02*
X112998653Y-51435001D01*
X111650000Y-52783654D02*
X111650000Y-74730000D01*
X116190000Y-52235000D02*
X115390001Y-51435001D01*
%TD*%
%TA.AperFunction,Conductor*%
%TO.N,GND*%
G36*
X117243039Y-50520185D02*
G01*
X117288794Y-50572989D01*
X117300000Y-50624500D01*
X117300000Y-53746453D01*
X117280315Y-53813492D01*
X117227511Y-53859247D01*
X117158353Y-53869191D01*
X117094797Y-53840166D01*
X117088319Y-53834134D01*
X117037213Y-53783028D01*
X116871613Y-53662715D01*
X116871612Y-53662714D01*
X116871610Y-53662713D01*
X116811898Y-53632288D01*
X116689223Y-53569781D01*
X116494534Y-53506522D01*
X116319995Y-53478878D01*
X116292352Y-53474500D01*
X116087648Y-53474500D01*
X116063329Y-53478351D01*
X115885465Y-53506522D01*
X115690776Y-53569781D01*
X115508386Y-53662715D01*
X115342786Y-53783028D01*
X115198028Y-53927786D01*
X115077715Y-54093386D01*
X114984781Y-54275776D01*
X114921522Y-54470465D01*
X114889500Y-54672648D01*
X114889500Y-54877351D01*
X114921522Y-55079534D01*
X114984781Y-55274223D01*
X115077715Y-55456613D01*
X115198028Y-55622213D01*
X115342786Y-55766971D01*
X115497749Y-55879556D01*
X115508390Y-55887287D01*
X115624607Y-55946503D01*
X115690776Y-55980218D01*
X115690778Y-55980218D01*
X115690781Y-55980220D01*
X115781862Y-56009814D01*
X115885465Y-56043477D01*
X115986557Y-56059488D01*
X116087648Y-56075500D01*
X116087649Y-56075500D01*
X116292351Y-56075500D01*
X116292352Y-56075500D01*
X116494534Y-56043477D01*
X116689219Y-55980220D01*
X116871610Y-55887287D01*
X116999045Y-55794701D01*
X117037213Y-55766971D01*
X117037215Y-55766968D01*
X117037219Y-55766966D01*
X117088319Y-55715866D01*
X117149642Y-55682381D01*
X117219334Y-55687365D01*
X117275267Y-55729237D01*
X117299684Y-55794701D01*
X117300000Y-55803547D01*
X117300000Y-56900000D01*
X120676000Y-56900000D01*
X120743039Y-56919685D01*
X120788794Y-56972489D01*
X120800000Y-57024000D01*
X120800000Y-63276000D01*
X120780315Y-63343039D01*
X120727511Y-63388794D01*
X120676000Y-63400000D01*
X120149500Y-63400000D01*
X120082461Y-63380315D01*
X120036706Y-63327511D01*
X120025500Y-63276000D01*
X120025500Y-59338393D01*
X120025499Y-59338389D01*
X120024046Y-59331082D01*
X120001463Y-59217548D01*
X119954311Y-59103714D01*
X119954310Y-59103713D01*
X119954307Y-59103707D01*
X119885858Y-59001267D01*
X119885855Y-59001263D01*
X119802218Y-58917626D01*
X119768733Y-58856303D01*
X119769249Y-58809590D01*
X119767715Y-58809347D01*
X119800500Y-58602351D01*
X119800500Y-58397648D01*
X119768477Y-58195465D01*
X119705218Y-58000776D01*
X119639515Y-57871828D01*
X119612287Y-57818390D01*
X119604556Y-57807749D01*
X119491971Y-57652786D01*
X119347213Y-57508028D01*
X119181613Y-57387715D01*
X119181612Y-57387714D01*
X119181610Y-57387713D01*
X119124653Y-57358691D01*
X118999223Y-57294781D01*
X118804534Y-57231522D01*
X118629995Y-57203878D01*
X118602352Y-57199500D01*
X118397648Y-57199500D01*
X118373329Y-57203351D01*
X118195465Y-57231522D01*
X118000776Y-57294781D01*
X117818386Y-57387715D01*
X117652786Y-57508028D01*
X117508028Y-57652786D01*
X117387713Y-57818388D01*
X117360484Y-57871828D01*
X117312510Y-57922623D01*
X117244688Y-57939418D01*
X117178554Y-57916880D01*
X117139516Y-57871828D01*
X117112286Y-57818388D01*
X116991971Y-57652786D01*
X116847213Y-57508028D01*
X116681613Y-57387715D01*
X116681612Y-57387714D01*
X116681610Y-57387713D01*
X116624653Y-57358691D01*
X116499223Y-57294781D01*
X116304534Y-57231522D01*
X116129995Y-57203878D01*
X116102352Y-57199500D01*
X115897648Y-57199500D01*
X115841971Y-57208318D01*
X115772678Y-57199363D01*
X115734893Y-57173526D01*
X113586819Y-55025451D01*
X113553334Y-54964128D01*
X113550500Y-54937770D01*
X113550500Y-54258625D01*
X113570185Y-54191586D01*
X113586819Y-54170944D01*
X113715690Y-54042073D01*
X113826760Y-53889199D01*
X113912547Y-53720832D01*
X113970940Y-53541118D01*
X113976419Y-53506523D01*
X114000500Y-53354486D01*
X114000500Y-53165513D01*
X113970940Y-52978881D01*
X113912545Y-52799163D01*
X113826759Y-52630800D01*
X113715690Y-52477927D01*
X113582073Y-52344310D01*
X113429199Y-52233240D01*
X113260836Y-52147454D01*
X113081118Y-52089059D01*
X112894486Y-52059500D01*
X112894481Y-52059500D01*
X112705519Y-52059500D01*
X112705514Y-52059500D01*
X112518881Y-52089059D01*
X112339163Y-52147454D01*
X112170800Y-52233240D01*
X112083579Y-52296610D01*
X112017927Y-52344310D01*
X112017925Y-52344312D01*
X112017924Y-52344312D01*
X111884312Y-52477924D01*
X111884312Y-52477925D01*
X111884310Y-52477927D01*
X111839550Y-52539534D01*
X111773240Y-52630800D01*
X111687454Y-52799163D01*
X111629059Y-52978881D01*
X111599500Y-53165513D01*
X111599500Y-53354486D01*
X111629059Y-53541118D01*
X111687454Y-53720836D01*
X111757979Y-53859247D01*
X111773240Y-53889199D01*
X111884310Y-54042073D01*
X111884312Y-54042075D01*
X112013181Y-54170944D01*
X112046666Y-54232267D01*
X112049500Y-54258625D01*
X112049500Y-55373918D01*
X112049500Y-55373920D01*
X112049499Y-55373920D01*
X112078340Y-55518907D01*
X112078343Y-55518917D01*
X112134913Y-55655490D01*
X112134914Y-55655491D01*
X112134916Y-55655495D01*
X112148282Y-55675498D01*
X112148283Y-55675501D01*
X112217046Y-55778414D01*
X112217052Y-55778421D01*
X113533481Y-57094849D01*
X113566966Y-57156172D01*
X113561982Y-57225864D01*
X113520110Y-57281797D01*
X113454646Y-57306214D01*
X113389505Y-57293015D01*
X113260836Y-57227454D01*
X113081118Y-57169059D01*
X112894486Y-57139500D01*
X112894481Y-57139500D01*
X112705519Y-57139500D01*
X112705514Y-57139500D01*
X112518881Y-57169059D01*
X112339163Y-57227454D01*
X112170800Y-57313240D01*
X112083579Y-57376610D01*
X112017927Y-57424310D01*
X112017925Y-57424312D01*
X112017924Y-57424312D01*
X111884312Y-57557924D01*
X111884312Y-57557925D01*
X111884310Y-57557927D01*
X111872753Y-57573834D01*
X111773240Y-57710800D01*
X111687454Y-57879163D01*
X111629059Y-58058881D01*
X111599500Y-58245513D01*
X111599500Y-58434486D01*
X111629059Y-58621118D01*
X111687454Y-58800836D01*
X111745187Y-58914142D01*
X111773240Y-58969199D01*
X111884310Y-59122073D01*
X112017927Y-59255690D01*
X112170801Y-59366760D01*
X112250347Y-59407290D01*
X112339163Y-59452545D01*
X112339165Y-59452545D01*
X112339168Y-59452547D01*
X112411592Y-59476079D01*
X112518881Y-59510940D01*
X112705514Y-59540500D01*
X112705519Y-59540500D01*
X112894486Y-59540500D01*
X113081118Y-59510940D01*
X113260832Y-59452547D01*
X113429199Y-59366760D01*
X113582073Y-59255690D01*
X113715690Y-59122073D01*
X113826760Y-58969199D01*
X113912547Y-58800832D01*
X113970940Y-58621118D01*
X113973912Y-58602351D01*
X114000500Y-58434486D01*
X114000500Y-58245513D01*
X113970940Y-58058881D01*
X113943846Y-57975497D01*
X113912547Y-57879168D01*
X113912545Y-57879165D01*
X113912545Y-57879163D01*
X113846984Y-57750493D01*
X113834088Y-57681824D01*
X113860364Y-57617083D01*
X113917471Y-57576826D01*
X113987276Y-57573834D01*
X114045150Y-57606517D01*
X114673526Y-58234893D01*
X114707011Y-58296216D01*
X114708318Y-58341971D01*
X114699500Y-58397647D01*
X114699500Y-58602351D01*
X114708318Y-58658026D01*
X114699363Y-58727320D01*
X114673526Y-58765105D01*
X114367047Y-59071584D01*
X114367043Y-59071589D01*
X114345580Y-59103713D01*
X114345580Y-59103714D01*
X114284914Y-59194508D01*
X114228343Y-59331082D01*
X114228340Y-59331092D01*
X114199500Y-59476079D01*
X114199500Y-60655323D01*
X114179815Y-60722362D01*
X114127011Y-60768117D01*
X114057853Y-60778061D01*
X114002615Y-60755641D01*
X113889202Y-60673242D01*
X113889201Y-60673241D01*
X113889199Y-60673240D01*
X113836620Y-60646450D01*
X113720836Y-60587454D01*
X113541118Y-60529059D01*
X113354486Y-60499500D01*
X113354481Y-60499500D01*
X113165519Y-60499500D01*
X113165514Y-60499500D01*
X112978881Y-60529059D01*
X112799163Y-60587454D01*
X112630800Y-60673240D01*
X112543579Y-60736610D01*
X112477927Y-60784310D01*
X112477925Y-60784312D01*
X112477924Y-60784312D01*
X112344312Y-60917924D01*
X112344312Y-60917925D01*
X112344310Y-60917927D01*
X112296610Y-60983579D01*
X112233240Y-61070800D01*
X112147454Y-61239163D01*
X112089059Y-61418881D01*
X112059500Y-61605513D01*
X112059500Y-61794486D01*
X112089059Y-61981118D01*
X112147454Y-62160836D01*
X112233240Y-62329199D01*
X112344310Y-62482073D01*
X112477927Y-62615690D01*
X112630801Y-62726760D01*
X112710347Y-62767290D01*
X112799163Y-62812545D01*
X112799165Y-62812545D01*
X112799168Y-62812547D01*
X112895497Y-62843846D01*
X112978881Y-62870940D01*
X113165514Y-62900500D01*
X113165519Y-62900500D01*
X113354486Y-62900500D01*
X113541118Y-62870940D01*
X113543463Y-62870178D01*
X113720832Y-62812547D01*
X113889199Y-62726760D01*
X114002616Y-62644357D01*
X114068420Y-62620878D01*
X114136474Y-62636703D01*
X114185169Y-62686809D01*
X114199500Y-62744676D01*
X114199500Y-74921753D01*
X114179815Y-74988792D01*
X114175819Y-74994637D01*
X114104949Y-75092183D01*
X114104948Y-75092185D01*
X114008444Y-75281585D01*
X113942753Y-75483760D01*
X113909500Y-75693713D01*
X113909500Y-75906286D01*
X113942753Y-76116239D01*
X114008444Y-76318414D01*
X114104951Y-76507820D01*
X114229890Y-76679786D01*
X114380213Y-76830109D01*
X114552179Y-76955048D01*
X114552181Y-76955049D01*
X114552184Y-76955051D01*
X114741588Y-77051557D01*
X114943757Y-77117246D01*
X115153713Y-77150500D01*
X115153714Y-77150500D01*
X115366286Y-77150500D01*
X115366287Y-77150500D01*
X115576243Y-77117246D01*
X115778412Y-77051557D01*
X115967816Y-76955051D01*
X115989789Y-76939086D01*
X116139786Y-76830109D01*
X116139788Y-76830106D01*
X116139792Y-76830104D01*
X116290104Y-76679792D01*
X116290106Y-76679788D01*
X116290109Y-76679786D01*
X116415048Y-76507820D01*
X116415047Y-76507820D01*
X116415051Y-76507816D01*
X116419514Y-76499054D01*
X116467488Y-76448259D01*
X116535308Y-76431463D01*
X116601444Y-76453999D01*
X116640486Y-76499056D01*
X116644951Y-76507820D01*
X116769890Y-76679786D01*
X116920213Y-76830109D01*
X117092179Y-76955048D01*
X117092181Y-76955049D01*
X117092184Y-76955051D01*
X117281588Y-77051557D01*
X117483757Y-77117246D01*
X117693713Y-77150500D01*
X117693714Y-77150500D01*
X117906286Y-77150500D01*
X117906287Y-77150500D01*
X118116243Y-77117246D01*
X118318412Y-77051557D01*
X118507816Y-76955051D01*
X118529789Y-76939086D01*
X118679786Y-76830109D01*
X118679788Y-76830106D01*
X118679792Y-76830104D01*
X118830104Y-76679792D01*
X118830106Y-76679788D01*
X118830109Y-76679786D01*
X118955048Y-76507820D01*
X118955047Y-76507820D01*
X118955051Y-76507816D01*
X118959514Y-76499054D01*
X119007488Y-76448259D01*
X119075308Y-76431463D01*
X119141444Y-76453999D01*
X119180486Y-76499056D01*
X119184951Y-76507820D01*
X119309890Y-76679786D01*
X119460213Y-76830109D01*
X119632179Y-76955048D01*
X119632181Y-76955049D01*
X119632184Y-76955051D01*
X119821588Y-77051557D01*
X120023757Y-77117246D01*
X120233713Y-77150500D01*
X120233714Y-77150500D01*
X120446286Y-77150500D01*
X120446287Y-77150500D01*
X120656243Y-77117246D01*
X120858412Y-77051557D01*
X121047816Y-76955051D01*
X121069789Y-76939086D01*
X121219786Y-76830109D01*
X121219788Y-76830106D01*
X121219792Y-76830104D01*
X121370104Y-76679792D01*
X121370106Y-76679788D01*
X121370109Y-76679786D01*
X121495048Y-76507820D01*
X121495047Y-76507820D01*
X121495051Y-76507816D01*
X121591557Y-76318412D01*
X121657246Y-76116243D01*
X121690500Y-75906287D01*
X121690500Y-75693713D01*
X121657246Y-75483757D01*
X121591557Y-75281588D01*
X121495051Y-75092184D01*
X121495049Y-75092181D01*
X121495048Y-75092179D01*
X121370109Y-74920213D01*
X121219786Y-74769890D01*
X121047820Y-74644951D01*
X120858414Y-74548444D01*
X120858413Y-74548443D01*
X120858412Y-74548443D01*
X120656243Y-74482754D01*
X120656241Y-74482753D01*
X120656240Y-74482753D01*
X120478190Y-74454553D01*
X120446287Y-74449500D01*
X120233713Y-74449500D01*
X120155861Y-74461830D01*
X120133541Y-74458945D01*
X120111104Y-74460736D01*
X120099556Y-74454553D01*
X120086568Y-74452875D01*
X120069349Y-74438380D01*
X120049508Y-74427757D01*
X120043137Y-74416314D01*
X120033116Y-74407879D01*
X120026467Y-74386375D01*
X120015519Y-74366712D01*
X120015304Y-74350272D01*
X120012477Y-74341127D01*
X120012711Y-74331530D01*
X120013232Y-74323281D01*
X120025501Y-74261606D01*
X120025501Y-74138393D01*
X120025500Y-74138387D01*
X120025500Y-74072330D01*
X120045185Y-74005291D01*
X120097989Y-73959536D01*
X120147393Y-73948349D01*
X122873900Y-73902137D01*
X122941262Y-73920682D01*
X122987905Y-73972703D01*
X123000000Y-74026119D01*
X123000000Y-78775500D01*
X122980315Y-78842539D01*
X122927511Y-78888294D01*
X122876000Y-78899500D01*
X111024500Y-78899500D01*
X110957461Y-78879815D01*
X110911706Y-78827011D01*
X110900500Y-78775500D01*
X110900500Y-50624500D01*
X110920185Y-50557461D01*
X110972989Y-50511706D01*
X111024500Y-50500500D01*
X117176000Y-50500500D01*
X117243039Y-50520185D01*
G37*
%TD.AperFunction*%
%TA.AperFunction,Conductor*%
G36*
X117138627Y-66308215D02*
G01*
X117169821Y-66370735D01*
X117171756Y-66393762D01*
X117147746Y-68938882D01*
X117127430Y-69005733D01*
X117074197Y-69050987D01*
X117004948Y-69060278D01*
X116950867Y-69038030D01*
X116881613Y-68987715D01*
X116881612Y-68987714D01*
X116881610Y-68987713D01*
X116824653Y-68958691D01*
X116699223Y-68894781D01*
X116504534Y-68831522D01*
X116329995Y-68803878D01*
X116302352Y-68799500D01*
X116097648Y-68799500D01*
X116043704Y-68808044D01*
X115895464Y-68831523D01*
X115895457Y-68831524D01*
X115862817Y-68842130D01*
X115792976Y-68844125D01*
X115733143Y-68808044D01*
X115702316Y-68745343D01*
X115700500Y-68724199D01*
X115700500Y-66444499D01*
X115720185Y-66377460D01*
X115772989Y-66331705D01*
X115824500Y-66320499D01*
X116800002Y-66320499D01*
X116800008Y-66320499D01*
X116902797Y-66309999D01*
X117008761Y-66274885D01*
X117078585Y-66272484D01*
X117138627Y-66308215D01*
G37*
%TD.AperFunction*%
%TD*%
M02*
